<?xml version="1.0" encoding="utf-8"?>
<!-- Generated by IcoMoon.io -->
<!DOCTYPE svg PUBLIC "-//W3C//DTD SVG 1.1//EN" "http://www.w3.org/Graphics/SVG/1.1/DTD/svg11.dtd">
<svg version="1.1" xmlns="http://www.w3.org/2000/svg" xmlns:xlink="http://www.w3.org/1999/xlink" width="512" height="512" viewBox="0 0 512 512">
<g>
</g>
	<path d="M443.955 118.405h-375.941c-29.788 0-54.067 24.279-54.067 54.057v167.024c0 29.819 24.279 54.118 54.067 54.118h375.941c29.819 0 54.098-24.3 54.098-54.118v-167.024c0.010-29.778-24.269-54.057-54.098-54.057zM478.218 172.462v167.024c0 18.903-15.38 34.243-34.263 34.243h-375.941c-18.883 0-34.233-15.339-34.233-34.243v-167.024c0-18.862 15.35-34.243 34.233-34.243h375.941c18.882 0 34.263 15.381 34.263 34.243z" fill="gray" />
	<path d="M343.337 174.203h-71.783v163.584h70.421c52.5 0 86.805-23.644 86.805-85.197 0-53.873-32.717-78.387-85.442-78.387zM336.558 299.602h-11.356v-87.245h10.178c28.662 0 39.783 9.083 39.783 43.202 0 30.884-13.639 44.042-38.605 44.042z" fill="gray" />
	<path d="M187.505 229.376h-50.667v-55.173h-53.627v163.574h53.627v-63.396h50.667v63.396h53.617v-163.574h-53.617z" fill="gray" />
</svg>
